<?xml version="1.0" encoding="utf-8"?><svg xmlns="http://www.w3.org/2000/svg" xmlns:xlink="http://www.w3.org/1999/xlink"><defs><svg viewBox="0 0 15 28" id="angle-double-right" xmlns="http://www.w3.org/2000/svg"><path d="M9.297 15a.54.54 0 0 1-.156.359L1.86 22.64c-.094.094-.234.156-.359.156s-.266-.063-.359-.156l-.781-.781c-.094-.094-.156-.234-.156-.359s.063-.266.156-.359L6.502 15 .361 8.859C.267 8.765.205 8.625.205 8.5s.063-.266.156-.359l.781-.781c.094-.094.234-.156.359-.156s.266.063.359.156l7.281 7.281a.536.536 0 0 1 .156.359zm6 0a.54.54 0 0 1-.156.359L7.86 22.64c-.094.094-.234.156-.359.156s-.266-.063-.359-.156l-.781-.781c-.094-.094-.156-.234-.156-.359s.063-.266.156-.359L12.502 15 6.361 8.859c-.094-.094-.156-.234-.156-.359s.063-.266.156-.359l.781-.781c.094-.094.234-.156.359-.156s.266.063.359.156l7.281 7.281a.536.536 0 0 1 .156.359z"/></svg><svg viewBox="0 0 28 28" id="archive" xmlns="http://www.w3.org/2000/svg"><path d="M17 13c0-.547-.453-1-1-1h-4c-.547 0-1 .453-1 1s.453 1 1 1h4c.547 0 1-.453 1-1zm9-3v15c0 .547-.453 1-1 1H3c-.547 0-1-.453-1-1V10c0-.547.453-1 1-1h22c.547 0 1 .453 1 1zm1-7v4c0 .547-.453 1-1 1H2c-.547 0-1-.453-1-1V3c0-.547.453-1 1-1h24c.547 0 1 .453 1 1z"/></svg><svg viewBox="0 0 22 28" id="close" xmlns="http://www.w3.org/2000/svg"><path d="M20.281 20.656c0 .391-.156.781-.438 1.062l-2.125 2.125c-.281.281-.672.438-1.062.438s-.781-.156-1.062-.438L11 19.249l-4.594 4.594c-.281.281-.672.438-1.062.438s-.781-.156-1.062-.438l-2.125-2.125c-.281-.281-.438-.672-.438-1.062s.156-.781.438-1.062L6.751 15l-4.594-4.594c-.281-.281-.438-.672-.438-1.062s.156-.781.438-1.062l2.125-2.125c.281-.281.672-.438 1.062-.438s.781.156 1.062.438L11 10.751l4.594-4.594c.281-.281.672-.438 1.062-.438s.781.156 1.062.438l2.125 2.125c.281.281.438.672.438 1.062s-.156.781-.438 1.062L15.249 15l4.594 4.594c.281.281.438.672.438 1.062z"/></svg><svg viewBox="0 0 24 24" id="close-search" xmlns="http://www.w3.org/2000/svg"><path fill="var(--color4, #DDD)" d="M13.46 12L19 17.54V19h-1.46L12 13.46 6.46 19H5v-1.46L10.54 12 5 6.46V5h1.46L12 10.54 17.54 5H19v1.46L13.46 12z"/></svg><svg viewBox="0 0 28 28" id="comment-o" xmlns="http://www.w3.org/2000/svg"><path d="M14 6C7.5 6 2 9.656 2 14c0 2.328 1.563 4.547 4.266 6.078l1.359.781-.422 1.5a11.29 11.29 0 0 1-1.094 2.688 15.479 15.479 0 0 0 4.297-2.672l.672-.594.891.094c.672.078 1.359.125 2.031.125 6.5 0 12-3.656 12-8s-5.5-8-12-8zm14 8c0 5.531-6.266 10-14 10-.766 0-1.531-.047-2.266-.125-2.047 1.813-4.484 3.094-7.187 3.781-.562.156-1.172.266-1.781.344h-.078c-.313 0-.594-.25-.672-.594v-.016c-.078-.391.187-.625.422-.906.984-1.109 2.109-2.047 2.844-4.656C2.063 20 .001 17.172.001 14c0-5.531 6.266-10 14-10s14 4.469 14 10z"/></svg><svg viewBox="0 0 28 28" id="envelope-o" xmlns="http://www.w3.org/2000/svg"><path fill="var(--color1, #38322d)" d="M26 23.5v-12a8.408 8.408 0 0 1-1.078 1.031c-2.234 1.719-4.484 3.469-6.656 5.281-1.172.984-2.625 2.188-4.25 2.188h-.031c-1.625 0-3.078-1.203-4.25-2.188-2.172-1.813-4.422-3.563-6.656-5.281A8.411 8.411 0 0 1 2.001 11.5v12c0 .266.234.5.5.5h23c.266 0 .5-.234.5-.5zm0-16.422C26 6.687 26.094 6 25.5 6h-23c-.266 0-.5.234-.5.5 0 1.781.891 3.328 2.297 4.438a980.43 980.43 0 0 1 6.266 4.953c.828.672 2.328 2.109 3.422 2.109h.031c1.094 0 2.594-1.437 3.422-2.109a946.207 946.207 0 0 1 6.266-4.953c1.016-.797 2.297-2.531 2.297-3.859zm2-.578v17c0 1.375-1.125 2.5-2.5 2.5h-23A2.507 2.507 0 0 1 0 23.5v-17C0 5.125 1.125 4 2.5 4h23C26.875 4 28 5.125 28 6.5z"/></svg><svg viewBox="0 0 24 28" id="facebook-square" xmlns="http://www.w3.org/2000/svg"><path fill="var(--color1, #3b5998)" d="M19.5 2C21.984 2 24 4.016 24 6.5v15c0 2.484-2.016 4.5-4.5 4.5h-2.938v-9.297h3.109l.469-3.625h-3.578v-2.312c0-1.047.281-1.75 1.797-1.75L20.265 9V5.766c-.328-.047-1.469-.141-2.781-.141-2.766 0-4.672 1.687-4.672 4.781v2.672H9.687v3.625h3.125V26H4.499a4.502 4.502 0 0 1-4.5-4.5v-15c0-2.484 2.016-4.5 4.5-4.5h15z"/></svg><svg viewBox="0 0 22 28" id="feed" xmlns="http://www.w3.org/2000/svg"><path d="M6 21a3.001 3.001 0 0 1-6 0 3.001 3.001 0 0 1 6 0zm8 1.922c.016.281-.078.547-.266.75A.949.949 0 0 1 13 24h-2.109a.986.986 0 0 1-.984-.906 9.997 9.997 0 0 0-9-9 .987.987 0 0 1-.906-.984v-2.109c0-.281.109-.547.328-.734a.958.958 0 0 1 .672-.266h.078a14.035 14.035 0 0 1 8.828 4.094 14.035 14.035 0 0 1 4.094 8.828zm8 .031a.95.95 0 0 1-.281.734A.958.958 0 0 1 21 24h-2.234a.995.995 0 0 1-1-.938C17.25 13.984 10.016 6.75.938 6.218A.992.992 0 0 1 0 5.234V3c0-.281.109-.531.313-.719A.972.972 0 0 1 1.001 2h.047a21.995 21.995 0 0 1 14.484 6.469 21.997 21.997 0 0 1 6.469 14.484z"/></svg><svg viewBox="0 0 32 32" id="github" xmlns="http://www.w3.org/2000/svg"><path fill="var(--color1, #333333)" d="M16 0C7.16 0 0 7.164 0 16c0 7.07 4.584 13.066 10.94 15.18.8.15 1.094-.344 1.094-.77 0-.38-.014-1.386-.02-2.72-4.452.966-5.39-2.146-5.39-2.146-.728-1.848-1.78-2.34-1.78-2.34-1.45-.992.112-.972.112-.972 1.606.112 2.45 1.648 2.45 1.648 1.428 2.446 3.746 1.74 4.66 1.33.144-1.034.556-1.74 1.014-2.14-3.554-.4-7.288-1.776-7.288-7.906 0-1.746.62-3.174 1.646-4.294-.18-.404-.72-2.03.14-4.234 0 0 1.34-.43 4.4 1.64 1.28-.356 2.64-.532 4-.54 1.36.008 2.72.184 4 .54 3.04-2.07 4.38-1.64 4.38-1.64.86 2.204.32 3.83.16 4.234 1.02 1.12 1.64 2.548 1.64 4.294 0 6.146-3.74 7.5-7.3 7.894.56.48 1.08 1.46 1.08 2.96 0 2.14-.02 3.86-.02 4.38 0 .42.28.92 1.1.76C27.42 29.06 32 23.06 32 16c0-8.836-7.164-16-16-16z"/></svg><svg viewBox="0 0 24 28" id="globe" xmlns="http://www.w3.org/2000/svg"><path fill="var(--color1, #004b79)" d="M12 2c6.625 0 12 5.375 12 12s-5.375 12-12 12S0 20.625 0 14 5.375 2 12 2zm4.281 8.141c-.125.094-.203.266-.359.297.078-.016.156-.297.203-.359.094-.109.219-.172.344-.234.266-.109.531-.141.812-.187.266-.063.594-.063.797.172-.047-.047.328-.375.375-.391.141-.078.375-.047.469-.187.031-.047.031-.344.031-.344-.266.031-.359-.219-.375-.438 0 .016-.031.063-.094.125.016-.234-.281-.063-.391-.094-.359-.094-.313-.344-.422-.609-.063-.141-.234-.187-.297-.328-.063-.094-.094-.297-.234-.313-.094-.016-.266.328-.297.313-.141-.078-.203.031-.313.094-.094.063-.172.031-.266.078.281-.094-.125-.25-.266-.219.219-.063.109-.297-.016-.406h.078c-.031-.141-.469-.266-.609-.359s-.891-.25-1.047-.156c-.187.109.047.422.047.578.016.187-.187.234-.187.391 0 .266.5.219.375.578-.078.219-.375.266-.5.438-.125.156.016.438.141.547.125.094-.219.25-.266.281-.266.125-.469-.266-.531-.5-.047-.172-.063-.375-.25-.469-.094-.031-.391-.078-.453.016-.094-.234-.422-.328-.641-.406-.313-.109-.578-.109-.906-.063.109-.016-.031-.5-.297-.422.078-.156.047-.328.078-.484a.887.887 0 0 1 .187-.359c.031-.063.375-.422.266-.438.266.031.562.047.781-.172.141-.141.203-.375.344-.531.203-.234.453.063.672.078.313.016.297-.328.125-.484.203.016.031-.359-.078-.406-.141-.047-.672.094-.391.203-.063-.031-.438.75-.656.359-.063-.078-.094-.406-.234-.422-.125 0-.203.141-.25.234.078-.203-.438-.344-.547-.359.234-.156.047-.328-.125-.422-.125-.078-.516-.141-.625-.016-.297.359.313.406.469.5.047.031.234.141.125.219-.094.047-.375.125-.406.187-.094.141.109.297-.031.438-.141-.141-.141-.375-.25-.531.141.172-.562.078-.547.078-.234 0-.609.156-.781-.078-.031-.063-.031-.422.063-.344-.141-.109-.234-.219-.328-.281a9.5 9.5 0 0 0-1.469.641.26.26 0 0 0 .187-.016c.125-.047.234-.125.359-.187.156-.063.484-.25.656-.109.016-.031.063-.063.078-.078.109.125.219.25.313.391-.125-.063-.328-.031-.469-.016-.109.031-.297.063-.344.187.047.078.109.203.078.281-.203-.141-.359-.375-.641-.406-.125 0-.25 0-.344.016a10.15 10.15 0 0 0-3.672 3.469.442.442 0 0 0 .187.125c.156.047 0 .5.297.266.094.078.109.187.047.297.016-.016.641.391.688.422.109.094.281.203.328.328.031.109-.063.234-.156.281-.016-.031-.25-.266-.281-.203-.047.078 0 .5.172.484-.25.016-.141.984-.203 1.172 0 .016.031.016.031.016-.047.187.109.922.422.844-.203.047.359.766.438.812.203.141.438.234.578.438.156.219.156.547.375.719-.063.187.328.406.313.672-.031.016-.047.016-.078.031.078.219.375.219.484.422.063.125 0 .422.203.359.031-.344-.203-.688-.375-.969-.094-.156-.187-.297-.266-.453-.078-.141-.094-.313-.156-.469.063.016.406.141.375.187-.125.313.5.859.672 1.062.047.047.406.516.219.516.203 0 .484.313.578.469.141.234.109.531.203.781.094.313.531.453.781.594.219.109.406.266.625.344.328.125.406.016.688-.031.406-.063.453.391.781.562.203.109.641.266.859.172-.094.031.328.672.359.719.141.187.406.281.562.469a.244.244 0 0 0 .109-.141c-.063.172.234.5.391.469.172-.031.219-.375.219-.5-.313.156-.594.031-.766-.281-.031-.078-.281-.516-.063-.516.297 0 .094-.234.063-.453s-.25-.359-.359-.547c-.094.187-.406.141-.5-.016 0 .047-.047.125-.047.187-.078 0-.156.016-.234-.016.031-.187.047-.422.094-.625.078-.281.594-.828-.078-.797-.234.016-.328.109-.406.313-.078.187-.047.359-.266.453-.141.063-.609.031-.75-.047-.297-.172-.5-.719-.5-1.031-.016-.422.203-.797 0-1.188.094-.078.187-.234.297-.313.094-.063.203.047.25-.141-.047-.031-.109-.094-.125-.094.234.109.672-.156.875 0 .125.094.266.125.344-.031.016-.047-.109-.234-.047-.359.047.266.219.313.453.141.094.094.344.063.516.156.172.109.203.281.406.047.125.187.141.187.187.375.047.172.141.609.297.688.328.203.25-.344.219-.531-.016-.016-.016-.531-.031-.531-.5-.109-.313-.5-.031-.766.047-.031.406-.156.562-.281.141-.125.313-.344.234-.547.078 0 .141-.063.172-.141-.047-.016-.234-.172-.266-.156.109-.063.094-.156.031-.25.156-.094.078-.266.234-.328.172.234.516-.031.344-.219.156-.219.516-.109.609-.313.234.063.063-.234.187-.406.109-.141.297-.141.438-.219 0 .016.391-.219.266-.234.266.031.797-.25.391-.484.063-.141-.141-.203-.281-.234.109-.031.25.031.344-.031.203-.141.063-.203-.109-.25-.219-.063-.5.078-.672.187zm-2.547 13.703a9.912 9.912 0 0 0 5.484-2.953c-.094-.094-.266-.063-.391-.125-.125-.047-.219-.094-.375-.125.031-.313-.313-.422-.531-.578-.203-.156-.328-.328-.625-.266-.031.016-.344.125-.281.187-.203-.172-.297-.266-.562-.344-.25-.078-.422-.391-.672-.109-.125.125-.063.313-.125.438-.203-.172.187-.375.031-.562-.187-.219-.516.141-.672.234-.094.078-.203.109-.266.203-.078.109-.109.25-.172.359-.047-.125-.313-.094-.328-.187.063.375.063.766.141 1.141.047.219 0 .578-.187.75s-.422.359-.453.625c-.031.187.016.359.187.406.016.234-.25.406-.234.656 0 .016.016.172.031.25z"/></svg><svg viewBox="0 0 32 32" id="instagram" xmlns="http://www.w3.org/2000/svg"><path fill="#e4405f" d="M16 0c-4.346 0-4.89.02-6.596.096C7.7.176 6.54.444 5.52.84a7.815 7.815 0 0 0-2.834 1.846A7.773 7.773 0 0 0 .84 5.52C.444 6.54.174 7.7.096 9.404.016 11.11 0 11.654 0 16s.02 4.89.096 6.596c.08 1.704.348 2.866.744 3.884a7.815 7.815 0 0 0 1.846 2.834c.888.89 1.78 1.44 2.834 1.846 1.02.396 2.18.666 3.884.744 1.706.08 2.25.096 6.596.096s4.89-.02 6.596-.096c1.704-.08 2.866-.348 3.884-.744a7.815 7.815 0 0 0 2.834-1.846 7.773 7.773 0 0 0 1.846-2.834c.396-1.02.666-2.18.744-3.884.08-1.706.096-2.25.096-6.596s-.02-4.89-.096-6.596c-.08-1.704-.348-2.866-.744-3.884a7.815 7.815 0 0 0-1.846-2.834A7.773 7.773 0 0 0 26.48.84C25.46.444 24.3.174 22.596.096 20.89.016 20.346 0 16 0zm0 2.88c4.272 0 4.78.02 6.466.096 1.56.072 2.406.332 2.97.552.748.29 1.28.636 1.84 1.196s.906 1.092 1.196 1.84c.22.564.48 1.41.552 2.97.076 1.688.094 2.194.094 6.466s-.02 4.78-.1 6.466c-.08 1.56-.34 2.406-.56 2.97-.3.748-.64 1.28-1.2 1.84s-1.1.906-1.84 1.196c-.56.22-1.42.48-2.98.552-1.7.076-2.2.094-6.48.094s-4.78-.02-6.48-.1c-1.56-.08-2.42-.34-2.98-.56-.76-.3-1.28-.64-1.84-1.2s-.92-1.1-1.2-1.84c-.22-.56-.48-1.42-.56-2.98-.06-1.68-.08-2.2-.08-6.46s.02-4.78.08-6.48c.08-1.56.34-2.42.56-2.98.28-.76.64-1.28 1.2-1.84s1.08-.92 1.84-1.2c.56-.22 1.4-.48 2.96-.56 1.7-.06 2.2-.08 6.48-.08zm0 4.904A8.215 8.215 0 0 0 7.784 16c0 4.54 3.68 8.216 8.216 8.216 4.54 0 8.216-3.68 8.216-8.216 0-4.54-3.68-8.216-8.216-8.216zm0 13.55a5.334 5.334 0 1 1 0-10.668 5.334 5.334 0 0 1 0 10.668zM26.46 7.46a1.92 1.92 0 1 1-3.841-.001 1.92 1.92 0 0 1 3.841.001z"/></svg><svg viewBox="0 0 24 28" id="music" xmlns="http://www.w3.org/2000/svg"><path d="M24 3.5V21c0 2.203-3.297 3-5 3s-5-.797-5-3 3.297-3 5-3c1.031 0 2.063.187 3 .609v-8.391l-12 3.703v11.078c0 2.203-3.297 3-5 3s-5-.797-5-3 3.297-3 5-3c1.031 0 2.063.187 3 .609V7.499c0-.656.438-1.234 1.062-1.437l13-4c.141-.047.281-.063.438-.063a1.5 1.5 0 0 1 1.5 1.5z"/></svg><svg viewBox="0 0 32 32" id="newspaper" xmlns="http://www.w3.org/2000/svg"><path d="M28 8V4H0v22a2 2 0 0 0 2 2h27a3 3 0 0 0 3-3V8h-4zm-2 18H2V6h24v20zM4 10h20v2H4zm12 4h8v2h-8zm0 4h8v2h-8zm0 4h6v2h-6zM4 14h10v10H4z"/></svg><svg viewBox="0 0 28 28" id="reply" xmlns="http://www.w3.org/2000/svg"><path d="M28 16.999a.99.99 0 0 0-.297-.703l-8-8A.996.996 0 0 0 19 7.999c-.547 0-1 .453-1 1v4h-3.5c-6.734 0-11.156-1.297-11.156-8.75 0-.641.031-1.281.078-1.922.016-.25.078-.531.078-.781 0-.297-.187-.547-.5-.547-.219 0-.328.109-.438.266-.234.328-.406.828-.578 1.188C1.093 4.453 0 7.312 0 9.5c0 1.75.172 3.547.828 5.203C3 20.094 9.375 21 14.5 21H18v4c0 .547.453 1 1 1a.99.99 0 0 0 .703-.297l8-8A.996.996 0 0 0 28 17z"/></svg><svg viewBox="0 0 26 28" id="search" xmlns="http://www.w3.org/2000/svg"><path d="M18 13c0-3.859-3.141-7-7-7s-7 3.141-7 7 3.141 7 7 7 7-3.141 7-7zm8 13c0 1.094-.906 2-2 2a1.96 1.96 0 0 1-1.406-.594l-5.359-5.344a10.971 10.971 0 0 1-6.234 1.937c-6.078 0-11-4.922-11-11s4.922-11 11-11 11 4.922 11 11c0 2.219-.672 4.406-1.937 6.234l5.359 5.359c.359.359.578.875.578 1.406z"/></svg><svg viewBox="0 0 30 28" id="tags" xmlns="http://www.w3.org/2000/svg"><path d="M7 7c0-1.109-.891-2-2-2s-2 .891-2 2 .891 2 2 2 2-.891 2-2zm16.672 9c0 .531-.219 1.047-.578 1.406l-7.672 7.688c-.375.359-.891.578-1.422.578s-1.047-.219-1.406-.578L1.422 13.906C.625 13.125 0 11.609 0 10.5V4c0-1.094.906-2 2-2h6.5c1.109 0 2.625.625 3.422 1.422l11.172 11.156c.359.375.578.891.578 1.422zm6 0c0 .531-.219 1.047-.578 1.406l-7.672 7.688a2.08 2.08 0 0 1-1.422.578c-.812 0-1.219-.375-1.75-.922l7.344-7.344c.359-.359.578-.875.578-1.406s-.219-1.047-.578-1.422L14.422 3.422C13.625 2.625 12.11 2 11 2h3.5c1.109 0 2.625.625 3.422 1.422l11.172 11.156c.359.375.578.891.578 1.422z"/></svg><svg viewBox="0 0 32 32" id="twitter" xmlns="http://www.w3.org/2000/svg"><path fill="#1da1f2" d="M32 6.076c-1.18.52-2.44.874-3.77 1.034a6.598 6.598 0 0 0 2.886-3.632 13.557 13.557 0 0 1-4.17 1.58 6.565 6.565 0 0 0-11.356 4.48c0 .52.06 1.02.17 1.5-5.456-.26-10.294-2.88-13.532-6.84A6.444 6.444 0 0 0 1.34 7.5c0 2.28 1.16 4.286 2.92 5.464a6.556 6.556 0 0 1-2.974-.82v.08a6.57 6.57 0 0 0 5.266 6.44 6.673 6.673 0 0 1-1.73.228c-.42 0-.82-.04-1.22-.116a6.58 6.58 0 0 0 6.14 4.56 13.156 13.156 0 0 1-8.14 2.808c-.52 0-1.04-.03-1.56-.09a18.665 18.665 0 0 0 10.08 2.948c12.08 0 18.68-10 18.68-18.66 0-.28 0-.56-.02-.84 1.28-.92 2.4-2.08 3.28-3.4z"/></svg><svg viewBox="0 0 32 32" id="youtube" xmlns="http://www.w3.org/2000/svg"><path fill="#cd201f" d="M0 14.69v2.52c0 2.59.32 5.18.32 5.18s.312 2.2 1.272 3.174c1.216 1.274 2.816 1.234 3.528 1.368 2.56.246 10.88.32 10.88.32s6.724-.008 11.2-.332c.628-.076 1.992-.08 3.208-1.356.96-.972 1.272-3.176 1.272-3.176s.32-2.588.32-5.18v-2.516c0-2.592-.32-5.18-.32-5.18s-.312-2.204-1.272-3.176c-1.216-1.276-2.58-1.28-3.208-1.356-4.476-.324-11.2-.332-11.2-.332s-8.32.072-10.88.32c-.712.134-2.312.094-3.528 1.368C.632 7.31.32 9.51.32 9.51S0 12.102 0 14.69zm12.696 5.46v-8.99l8.646 4.51-8.64 4.48z"/></svg></defs></svg>