<svg version="1.1" xmlns="http://www.w3.org/2000/svg" width="28" height="28" viewBox="0 0 28 28">
<title>reply</title>
<path d="m 28,16.999 c 0,-0.266 -0.109,-0.516 -0.297,-0.703 l -8,-8 C 19.516,8.109 19.265,7.999 19,7.999 c -0.547,0 -1,0.453 -1,1 v 4 H 14.5 C 7.766,12.999 3.344,11.702 3.344,4.249 3.344,3.608 3.375,2.968 3.422,2.327 3.438,2.077 3.5,1.796 3.5,1.546 3.5,1.249 3.313,0.999 3,0.999 2.781,0.999 2.672,1.108 2.562,1.265 2.328,1.593 2.156,2.093 1.984,2.453 1.093,4.453 0,7.312 0,9.5 0,11.25 0.172,13.047 0.828,14.703 3,20.094 9.375,21 14.5,21 H 18 v 4 c 0,0.547 0.453,1 1,1 0.266,0 0.516,-0.109 0.703,-0.297 l 8,-8 C 27.89,17.516 28,17.265 28,17 Z"></path>
</svg>
